<?xml version="1.0" encoding="UTF-8"?><svg id="uuid-fa6fcea0-cdbb-4736-b8b6-8ae232f58c5a" xmlns="http://www.w3.org/2000/svg" width="125.13" height="130.71" xmlns:xlink="http://www.w3.org/1999/xlink" viewBox="0 0 125.13 130.71"><defs><linearGradient id="uuid-7568695d-c9df-42fc-bdb1-cc989e609d1b" x1="21" y1="121.19" x2="98.52" y2="29.47" gradientTransform="translate(0 129.7) scale(1 -1)" gradientUnits="userSpaceOnUse"><stop offset="0" stop-color="#508ab7"/><stop offset="1" stop-color="#2d1342"/></linearGradient><linearGradient id="uuid-258e9840-54f5-4722-a1e2-29e4b569c8bf" x1="26.49" y1="119.63" x2="103.84" y2="44.47" gradientTransform="translate(0 129.7) scale(1 -1)" gradientUnits="userSpaceOnUse"><stop offset="0" stop-color="#49c7ff"/><stop offset="1" stop-color="#bd36ff"/></linearGradient><linearGradient id="uuid-bd1fc64e-5167-4d6e-bcaa-fe18a10dcc7f" x1="10.9" y1="50.28" x2="114.23" y2="50.28" gradientUnits="userSpaceOnUse"><stop offset="0" stop-color="#ffdf15"/><stop offset="1" stop-color="#ff931e"/></linearGradient><linearGradient id="uuid-7e206785-22d5-45ea-9863-590a6cf0abd9" x1="51.11" y1="68.8" x2="86.98" y2="51.99" gradientTransform="translate(0 129.7) scale(1 -1)" gradientUnits="userSpaceOnUse"><stop offset="0" stop-color="#49c8ff"/><stop offset="1" stop-color="#be35ff"/></linearGradient><linearGradient id="uuid-86ca698f-b37f-42df-a8d1-5a11f9a4ab9a" x1="53.35" y1="64.14" x2="84.55" y2="55.58" gradientTransform="translate(0 129.7) scale(1 -1)" gradientUnits="userSpaceOnUse"><stop offset="0" stop-color="#4bc7ff"/><stop offset="1" stop-color="#b93dff"/></linearGradient><linearGradient id="uuid-8b4ccda6-8e09-4838-afcb-11f0686c8087" x1="53.42" y1="117.61" x2="74" y2="95.28" gradientTransform="translate(0 129.7) scale(1 -1)" gradientUnits="userSpaceOnUse"><stop offset="0" stop-color="#41d1ff"/><stop offset="1" stop-color="#bd34fe"/></linearGradient><linearGradient id="uuid-58df600b-798b-4e10-8312-b04bd7a59621" x1="61.8" y1="114.25" x2="67.72" y2="92.97" gradientTransform="translate(0 129.7) scale(1 -1)" gradientUnits="userSpaceOnUse"><stop offset="0" stop-color="#ffea83"/><stop offset=".08" stop-color="#ffdd35"/><stop offset="1" stop-color="#ffa800"/></linearGradient></defs><rect x="20.67" y="0" width="83.8" height="100.56" style="fill:none;"/><path d="M20.73,22.99c-.52-3.55,2.05-6.83,5.74-7.33l53.45-7.22c3.69-.5,7.1,1.97,7.62,5.52l10.56,72.26c.52,3.55-2.05,6.83-5.74,7.33l-51.23,6.92c-4.92.67-9.47-2.63-10.16-7.36L20.73,22.99Z" style="fill:url(#uuid-7568695d-c9df-42fc-bdb1-cc989e609d1b);"/><path d="M25.98,16.01c-.56-4.03,2.22-7.76,6.22-8.32L85.96.07c4-.57,7.69,2.24,8.26,6.27l10.17,72.96c.56,4.03-2.22,7.76-6.22,8.32l-53.77,7.62c-4,.57-7.69-2.24-8.26-6.27L25.98,16.01Z" style="fill:url(#uuid-258e9840-54f5-4722-a1e2-29e4b569c8bf);"/><path d="M30.67,17.67c-.4-2.86,1.58-5.51,4.43-5.91l49.44-6.99c2.84-.4,5.47,1.59,5.87,4.46l9.55,68.43c.4,2.86-1.58,5.51-4.43,5.91l-49.44,6.99c-2.84.4-5.47-1.59-5.87-4.45L30.67,17.67Z" style="fill:#fff;"/><path d="M59.31,38.25c-15.08-4.16-36.35-3.96-47.29-2.12-1.32.22-1.53,6.3-.35,6.51,2.16.87,3.09,3.06,3.09,3.06,0,0,.65,1.94,2.52,9.81,1.88,7.88,6.35,8.82,6.35,8.82,0,0,5.47,1.35,11.78,1.35s10.09-.29,14.13-2.31,5.81-7.65,5.81-7.65c0,0,2.04-4.85,3.44-9.43.44-1.44,7.13-1.44,7.57,0,1.4,4.58,3.44,9.43,3.44,9.43,0,0,1.77,5.63,5.81,7.65,4.04,2.02,7.82,2.31,14.13,2.31s11.78-1.35,11.78-1.35c0,0,4.47-.94,6.35-8.82,1.88-7.88,2.52-9.81,2.52-9.81,0,0,.92-2.18,3.09-3.06,1.17-.21.97-6.29-.35-6.51-10.94-1.84-32.21-2.04-47.29,2.12-1.02.23-5.48.23-6.5,0h0Z" style="fill:url(#uuid-bd1fc64e-5167-4d6e-bcaa-fe18a10dcc7f);"/><path d="M83.25,57.69l-32.38,4.26c-1.28.17-2.17,1.27-1.99,2.47l2.11,14.07c.18,1.2,1.36,2.03,2.64,1.86l32.38-4.26c1.28-.17,2.17-1.27,1.99-2.47l-2.11-14.07c-.18-1.2-1.36-2.03-2.64-1.86Z" style="fill:none; stroke:url(#uuid-7e206785-22d5-45ea-9863-590a6cf0abd9); stroke-width:4px;"/><path d="M54.97,77.13l-1.76-12.16,3.81-.52,4.46,3.95,3.17-4.99,3.81-.52,1.76,12.16-3.81.52-1.01-6.97-3.17,4.99-4.46-3.95,1.01,6.97-3.81.52ZM78.8,73.87l-6.57-5.12,3.81-.52-.91-6.26,3.81-.52.9,6.26,3.81-.52-4.87,6.68Z" style="fill:url(#uuid-86ca698f-b37f-42df-a8d1-5a11f9a4ab9a);"/><path d="M77.02,17.58l-11.19,26.98c-.23.56-1.02.67-1.4.2l-18.77-22.92c-.42-.51-.01-1.26.68-1.24l15.22.49c.1,0,.19-.01.29-.04l14.18-4.46c.65-.21,1.26.4,1.01,1Z" style="fill:url(#uuid-8b4ccda6-8e09-4838-afcb-11f0686c8087);"/><path d="M67.77,14.35l-10.68,3.51c-.18.06-.29.22-.27.39l.89,10.83c.02.26.3.42.55.33l2.96-1.08c.28-.1.57.1.55.38l-.3,4.31c-.02.29.3.49.58.37l1.81-.8c.28-.12.6.08.58.37l-.48,6.77c-.03.42.58.57.77.18l.13-.26,6.49-18.01c.11-.3-.2-.59-.52-.48l-3.06,1c-.29.09-.58-.13-.53-.42l1.08-6.98c.04-.28-.25-.51-.53-.41Z" style="fill:url(#uuid-58df600b-798b-4e10-8312-b04bd7a59621);"/><text transform="translate(2.03 123.27)" style="fill:#494368; font-family:MontserratAlternates-Bold, &apos;Montserrat Alternates&apos;; font-size:24px; font-weight:700;"><tspan x="0" y="0">awesome</tspan></text></svg>